# xmcd CD database file generated by Grip 3.2.0
# 
# Track frame offsets:
#       150
#       15411
#       25915
#       45494
#       69326
# 
# Disc length: 1076 seconds
# 
# Revision: 1
# Processed by: cddbd v1.5.1PL0 Copyright (c) Steve Scherf et al.
# Submitted via: Grip 3.2.0
# 
DISCID=30043205
DTITLE=C. Basinet - For You, With Love
DYEAR=1999
DGENRE=Pop
TTITLE0=Santa Baby
TTITLE1=Someone To Watch Over Me
TTITLE2=Tea For Two
TTITLE3=Haunted Heart
TTITLE4=Data
EXTD=
EXTT0=
EXTT1=
EXTT2=
EXTT3=
EXTT4=
PLAYORDER=
